<svg width="46" height="55" viewBox="0 0 46 55" fill="none" xmlns="http://www.w3.org/2000/svg">
<mask id="mask0_110_184" style="mask-type:alpha" maskUnits="userSpaceOnUse" x="0" y="8" width="45" height="46">
<circle cx="22.5" cy="30.6245" r="22.5" fill="#C4C4C4"/>
</mask>
<g mask="url(#mask0_110_184)">
<path d="M-8 7.12451H72V67.1245H-8V7.12451Z" fill="#DE2910"/>
<path d="M1.59996 29.3245L6.99989 13.1245L12.3998 29.3245L-2 19.4245H15.9998L1.59996 29.3245Z" fill="#FFDE00"/>
<path d="M25.0214 13.4348L19.4642 14.6664L23.171 10.3468L22.8075 16.1604L19.7235 11.0136L25.0214 13.4348Z" fill="#FFDE00"/>
<path d="M30.63 20.5429L25.0302 19.5227L30.1221 16.9789L27.5323 22.1964L26.6859 16.2564L30.63 20.5429Z" fill="#FFDE00"/>
<path d="M29.8125 30.5152L25.1157 27.2997L30.8024 27.0539L26.3098 30.7615L27.9596 24.9928L29.8125 30.5152Z" fill="#FFDE00"/>
<path d="M22.7486 37.0299L19.6581 32.2498L24.9985 34.2195L19.4225 35.9042L23.1723 31.2203L22.7486 37.0299Z" fill="#FFDE00"/>
</g>
</svg>
