<svg width="65" height="62" viewBox="0 0 65 62" fill="none" xmlns="http://www.w3.org/2000/svg">
<mask id="mask0_9_1253" style="mask-type:alpha" maskUnits="userSpaceOnUse" x="0" y="8" width="54" height="53">
<ellipse cx="26.7849" cy="34.5" rx="26.7849" ry="26.5" fill="#C4C4C4"/>
</mask>
<g mask="url(#mask0_9_1253)">
<path d="M-8 7H72V67H-8V7Z" fill="#DE2910"/>
<path d="M1.59996 29.2L6.99989 13L12.3998 29.2L-2 19.3H15.9998L1.59996 29.2Z" fill="#FFDE00"/>
<path d="M25.0211 13.3103L19.4639 14.5418L23.1708 10.2223L22.8072 16.0359L19.7233 10.8891L25.0211 13.3103Z" fill="#FFDE00"/>
<path d="M30.6297 20.4184L25.0299 19.3982L30.1219 16.8544L27.5321 22.0719L26.6857 16.1319L30.6297 20.4184Z" fill="#FFDE00"/>
<path d="M29.8128 30.3906L25.1159 27.1752L30.8026 26.9294L26.31 30.637L27.9598 24.8683L29.8128 30.3906Z" fill="#FFDE00"/>
<path d="M22.7486 36.9049L19.6581 32.1248L24.9985 34.0945L19.4225 35.7792L23.1723 31.0953L22.7486 36.9049Z" fill="#FFDE00"/>
</g>
</svg>
